<svg width="32" height="25" viewBox="0 0 32 25" fill="none" xmlns="http://www.w3.org/2000/svg">
<path d="M0.529013 9.83326C0.529013 11.3761 0.960468 12.8359 1.72944 14.1353C2.80362 15.9506 4.53643 17.4529 6.67177 18.4315C8.38867 19.2183 10.3658 19.6665 12.4701 19.6665C19.0649 19.6665 24.4111 15.264 24.4111 9.83326C24.4111 4.4025 19.0649 0 12.4701 0C5.87521 0 0.529013 4.4025 0.529013 9.83326Z" fill="#B1CEFF"/>
<path d="M6.67177 18.4315C5.44704 18.3862 2.53832 18.4846 0.701239 19.241C0.605558 19.3041 0.356785 19.4207 0.12715 19.3829C-0.102486 19.3451 0.0314674 19.0204 0.12715 18.8628C0.582979 17.4446 1.5416 14.5135 1.72944 14.1353C2.80362 15.9506 4.53643 17.4529 6.67177 18.4315Z" fill="#B1CEFF"/>
<path d="M29.2687 22.7907L29.2688 22.791C29.2697 22.7931 29.2695 22.7929 29.2687 22.7907ZM26.963 22.8905C27.755 22.9715 28.5463 23.1181 29.1369 23.3519C29.2189 23.3977 29.3174 23.4418 29.4251 23.4757C29.5672 23.5203 29.7832 23.5653 30.0268 23.5252C30.2786 23.4837 30.5319 23.3308 30.6652 23.0514C30.7734 22.8247 30.7547 22.6106 30.7379 22.505C30.7121 22.3419 30.6503 22.1958 30.5964 22.0921C30.4232 21.5542 30.1673 20.768 29.9343 20.0713C29.8128 19.7078 29.6966 19.366 29.6013 19.0956C29.5745 19.0196 29.5475 18.9438 29.5212 18.8718C30.0527 17.8638 30.351 16.7439 30.351 15.5628C30.351 10.9117 25.8291 7.37598 20.57 7.37598C15.311 7.37598 10.7891 10.9117 10.7891 15.5628C10.7891 20.214 15.311 23.7497 20.57 23.7497C22.2106 23.7497 23.7619 23.412 25.1262 22.811C25.5679 22.8019 26.2427 22.8168 26.963 22.8905Z" fill="#B1CEFF" stroke="#F9FBFF" stroke-width="1.5"/>
</svg>
