<svg width="39" height="40" viewBox="0 0 39 40" fill="none" xmlns="http://www.w3.org/2000/svg">
<path d="M20.0387 3.557V13.3976C18.6994 13.3976 18.4018 15.9322 20.3363 15.9322C22.3443 15.9322 21.9733 13.3976 20.634 13.3976V3.557L26.8841 15.4849C26.4079 18.4669 20.634 26.8165 17.6577 29.5003V24.1327L13.9374 15.4849L20.0387 3.557Z" fill="#007EEA"/>
<path d="M24.0567 35.6133L22.7174 25.0273C21.2887 28.3671 18.0545 32.2834 16.616 33.5259V35.6133C4.47281 32.2735 3.71882 21.101 4.85973 15.9322C6.25017 10.6892 11.2587 7.73178 13.1933 6.68808C15.1279 5.64439 17.0624 5.048 16.7648 2.81151C16.5267 1.02232 14.6814 0.545204 13.4909 1.02232C1.34773 5.55494 -0.497562 16.628 0.0976917 21.598C0.0976917 28.1584 6.7943 39.0426 20.3363 39.0426C26.2889 39.0426 38.194 34.7486 38.194 19.9579C38.194 6.83719 25.0984 2.61271 21.2292 2.66241V2.36421L20.634 2.36421V2.81151V3.2588L21.2292 3.2588V2.9606L21.378 2.96061C28.3723 2.81151 36.2594 10.7138 36.2594 19.9579C36.2594 28.1584 30.9021 34.5696 24.0567 35.6133Z" fill="#007EEA"/>
</svg>
