<svg width="297" height="97" viewBox="0 0 297 97" fill="none" xmlns="http://www.w3.org/2000/svg">
<path d="M295.636 32.7322C296.276 38.7429 292.918 44.9896 286.069 51.159C279.231 57.3191 268.993 63.3236 256.094 68.8345C230.301 79.8539 193.977 88.8545 153.237 93.209C112.497 97.5635 75.0954 96.4433 47.5639 91.1235C33.795 88.463 22.5238 84.7576 14.5425 80.1815C6.54904 75.5985 1.95238 70.202 1.31264 64.1913C0.672908 58.1806 4.03035 51.9339 10.8794 45.7645C17.718 39.6043 27.9558 33.5999 40.855 28.089C66.6474 17.0696 102.972 8.06898 143.712 3.71447C184.451 -0.640043 221.853 0.480202 249.385 5.79995C263.154 8.46043 274.425 12.1659 282.406 16.7419C290.4 21.3249 294.996 26.7214 295.636 32.7322Z" stroke="white"/>
</svg>
