<svg width="178" height="178" viewBox="0 0 178 178" fill="none" xmlns="http://www.w3.org/2000/svg">
<path d="M89.0231 0.108795V0.059082H0.159966V85.591C0.119286 86.7029 0.0966797 87.8194 0.0966797 88.9403C0.0966797 90.0613 0.119286 91.1732 0.159966 92.2896V177.894H88.2683V177.944H177.389V89.433V88.5968V0.11332H89.0231V0.108795ZM21.1011 144.613H51.5071C52.4111 144.672 53.3106 144.708 54.2101 144.717C55.209 144.726 56.2035 144.694 57.1979 144.613H88.1689V176.533C61.198 176.38 37.0793 163.977 21.1011 144.613ZM55.0101 102.442V143.849H51.5298C43.6198 143.343 35.5742 141.011 29.5716 137.417C14.0228 128.115 7.27896 115.577 4.35904 106.699C1.19956 97.0808 1.71485 89.5867 1.71937 89.5144C1.71937 89.5053 1.71937 89.4963 1.71937 89.4872H55.0147V100.34C55.0102 100.371 55.0056 100.403 55.0011 100.43C54.9243 101.081 54.9288 101.764 55.0101 102.442ZM122.299 75.5566V34.1489H125.798C133.744 34.6551 141.821 36.9875 147.851 40.5809C163.468 49.883 170.239 62.4215 173.172 71.2988C176.345 80.9173 175.83 88.4115 175.821 88.4838C175.821 88.4928 175.821 88.5018 175.821 88.5109H122.295V77.6584C122.299 77.6267 122.304 77.5951 122.308 77.568C122.385 76.9171 122.381 76.2391 122.299 75.5566ZM86.1078 101.352C87.4276 103.992 88.0287 106.749 88.1689 109.443V109.705H68.6153V89.5731C69.7634 89.5053 70.9251 89.5414 71.9828 89.6996C78.582 90.6669 83.6037 96.3531 86.1078 101.352ZM74.4371 89.4872H88.1643V104.643C87.8298 103.418 87.3734 102.202 86.7767 101.004C85.2625 97.9758 83.2059 95.2773 80.8329 93.2026C78.8215 91.4353 76.679 90.1923 74.4371 89.4872ZM74.9343 65.5855C74.8982 65.8115 74.8349 66.0194 74.749 66.1731C74.3693 66.8692 73.7003 67.3528 72.9274 67.5698V65.5855H74.9343ZM72.9274 64.8261V63.5605H73.4337V64.8261H72.9274ZM74.1931 64.8261V64.0487C74.4643 64.0487 74.6541 64.1527 74.7806 64.3696C74.8575 64.4962 74.9072 64.6544 74.9343 64.8261H74.1931ZM75.3953 66.5709V68.0534H73.8179C74.4733 67.7325 75.0292 67.2262 75.3953 66.5709ZM75.0519 63.5605H75.3953V63.9221C75.3004 63.7775 75.1829 63.66 75.0519 63.5605ZM68.2311 62.8011C68.3306 61.3683 69.0673 59.5739 69.8674 58.5885C71.0064 57.1918 73.158 56.1658 75.2688 55.9036H75.3953V62.8011H68.2311ZM72.1681 63.5605V67.6918C71.7523 67.7099 71.3228 67.6556 70.9025 67.5155C69.1352 66.9234 68.4933 64.8894 68.2673 63.7323C68.2583 63.678 68.2492 63.6148 68.2447 63.5605H72.1681ZM69.2798 58.1139C68.7917 58.7151 68.3306 59.5558 67.9961 60.4553V55.9036H72.3805C71.1285 56.437 70.0256 57.2009 69.2798 58.1139ZM70.229 68.0534H67.9916V65.477C68.4978 66.7019 69.2617 67.5833 70.229 68.0534ZM88.0242 68.8128C88.0288 68.9167 88.0333 69.0206 88.0378 69.1246V70.6795C88.0152 71.1993 87.97 71.7101 87.8977 72.1982C86.9349 78.8245 81.2759 83.8689 76.3039 86.382C73.5919 87.7515 70.7533 88.3527 67.9916 88.4657V68.8173H88.0242V68.8128ZM89.0231 73.4503C89.3576 74.6436 89.8051 75.8278 90.3927 76.9939C91.916 80.0223 93.9816 82.7208 96.3636 84.7955C98.3841 86.5583 100.54 87.8012 102.787 88.5109H89.0231V73.4503ZM91.0662 76.6504C89.8096 74.1463 89.1994 71.5428 89.0231 68.9845V68.2975H108.635V88.4296C107.483 88.4974 106.317 88.4612 105.254 88.303C98.6282 87.3312 93.5793 81.645 91.0662 76.6504ZM88.0378 64.7312C86.8219 61.1559 83.8613 57.5037 80.0961 55.9036H88.0378V64.7312ZM87.6265 66.0284C87.7802 66.6703 87.8886 67.3528 87.961 68.0534H76.1547V55.9081H77.2847C82.4194 56.5861 86.5643 61.5581 87.6265 66.0284ZM76.6519 87.0555C79.6622 85.5322 82.3516 83.4666 84.4173 81.0846C86.1168 79.1274 87.3282 77.0482 88.0423 74.8786V88.5425H72.6789C74.0123 88.199 75.3456 87.7154 76.6519 87.0555ZM112.622 73.7621V73.2559H113.888V73.7621H112.622ZM113.883 75.3894V75.7374H113.522C113.671 75.6379 113.788 75.5205 113.883 75.3894ZM113.4 74.526C113.4 74.7972 113.296 74.987 113.079 75.1181C112.952 75.195 112.794 75.2447 112.622 75.2719V74.526H113.4ZM109.756 72.492C109.738 72.0717 109.793 71.6423 109.933 71.2219C110.525 69.4455 112.559 68.7992 113.716 68.5732C113.77 68.5641 113.833 68.5551 113.888 68.5506V72.492H109.756ZM111.863 73.2514V75.2673C111.637 75.2312 111.429 75.1679 111.275 75.082C110.579 74.7023 110.095 74.0288 109.878 73.2514H111.863ZM109.395 70.5394V68.2929H111.971C110.746 68.7992 109.86 69.5676 109.395 70.5394ZM110.877 75.7328H109.395V74.1464C109.716 74.8063 110.222 75.3622 110.877 75.7328ZM121.54 76.4967V77.6358C120.862 82.7931 115.89 86.9605 111.42 88.0273C110.778 88.1809 110.095 88.2939 109.395 88.3663V76.4967H121.54ZM118.855 70.1778C120.252 71.3214 121.278 73.4864 121.54 75.6063V75.7374H114.643V68.528C116.075 68.632 117.874 69.3732 118.855 70.1778ZM116.988 68.2929H121.54V72.6999C121.007 71.4434 120.247 70.336 119.33 69.5857C118.733 69.093 117.892 68.6319 116.988 68.2929ZM121.54 80.4563V88.5109H112.5C116.143 87.3402 119.908 84.3209 121.54 80.4563ZM121.54 67.5291H89.0231V65.6081C89.4073 59.8361 91.5995 54.6923 92.9149 52.0707C97.2676 43.4013 105.765 36.9513 115.637 34.8043C117.119 34.4834 118.629 34.2619 120.143 34.1444H121.536V67.5291H121.54ZM92.2414 51.7271C91.2922 53.6165 89.9 56.7896 89.0231 60.5728V34.1444H115.104C105.173 36.4225 96.6439 42.9674 92.2414 51.7271ZM88.0378 1.62298V55.1488H77.3119C77.2802 55.1443 77.2531 55.1398 77.2214 55.1352C76.5705 55.0584 75.8971 55.0675 75.2191 55.1488H34.0193V51.6503C34.521 43.7042 36.8443 35.6269 40.4196 29.5973C49.672 13.9807 62.1473 7.2097 70.9793 4.27622C80.1821 1.2207 87.4276 1.5823 88.0378 1.62298ZM67.2368 55.9081V88.4838C60.7415 88.538 54.748 85.9933 51.8597 84.5333C43.2356 80.1806 36.8172 71.683 34.6837 61.8113C34.3628 60.3287 34.1458 58.8191 34.0283 57.3049V55.9127H67.2368V55.9081ZM51.5117 85.2023C53.4824 86.1967 56.8543 87.6792 60.8591 88.5425H34.0238V62.3401C36.2838 72.2751 42.7971 80.8043 51.5117 85.2023ZM64.6468 104.236V104.742H63.3857V104.236H64.6468ZM63.3857 102.613V102.265H63.7428C63.6027 102.365 63.4852 102.478 63.3857 102.613ZM63.8739 103.472C63.8739 103.201 63.9779 103.011 64.1948 102.88C64.3214 102.803 64.4796 102.753 64.6513 102.726V103.472H63.8739ZM67.4989 105.511C67.517 105.931 67.4627 106.36 67.3226 106.781C66.7305 108.557 64.7101 109.203 63.5575 109.429C63.5032 109.438 63.4445 109.448 63.3857 109.452V105.511H67.4989ZM65.4016 104.747V102.731C65.6231 102.767 65.831 102.83 65.9892 102.916C66.6808 103.296 67.1644 103.969 67.3814 104.747H65.4016ZM67.8605 107.459V109.705H65.2931C66.5135 109.203 67.395 108.435 67.8605 107.459ZM66.3825 102.265H67.8605V103.852C67.5396 103.192 67.0379 102.636 66.3825 102.265ZM55.765 101.501V100.362C56.443 95.205 61.3924 91.0376 65.8401 89.9708C66.4774 89.8172 67.1599 89.7042 67.856 89.6318V101.501H55.765ZM58.4409 107.825C57.0487 106.681 56.0317 104.516 55.7695 102.396V102.265H62.6354V109.47C61.2071 109.371 59.4172 108.629 58.4409 107.825ZM60.2986 109.705H55.765V105.298C56.2938 106.555 57.0532 107.662 57.9662 108.412C58.5629 108.905 59.3991 109.371 60.2986 109.705ZM55.765 97.5418V89.4872H64.7643C61.1393 90.6624 57.3877 93.6772 55.765 97.5418ZM55.765 110.469H88.1643V111.938C87.8705 117.891 85.606 123.238 84.2636 125.927C79.9289 134.597 71.472 141.047 61.641 143.194C60.163 143.515 58.6623 143.736 57.1526 143.854H55.765V110.469ZM84.9371 126.271C85.8908 124.364 87.2965 121.145 88.1689 117.317V143.854H62.1743C72.0641 141.58 80.5527 135.031 84.9371 126.271ZM102.307 112.413C102.344 112.187 102.407 111.979 102.493 111.825C102.872 111.129 103.546 110.645 104.328 110.428V112.413H102.307ZM104.328 113.172V114.438H103.817V113.172H104.328ZM103.053 113.172V113.949C102.782 113.949 102.592 113.845 102.461 113.629C102.384 113.502 102.335 113.344 102.307 113.172H103.053ZM101.842 111.432V109.949H103.433C102.773 110.27 102.212 110.772 101.842 111.432ZM102.19 114.438H101.842V114.076C101.937 114.221 102.054 114.343 102.19 114.438ZM109.06 115.197C108.961 116.63 108.215 118.424 107.411 119.41C106.262 120.806 104.097 121.832 101.973 122.094H101.842V115.197H109.06ZM105.092 114.438V110.306C105.512 110.288 105.946 110.342 106.366 110.483C108.147 111.075 108.794 113.109 109.02 114.266C109.029 114.32 109.038 114.383 109.042 114.438H105.092ZM108.003 119.884C108.495 119.283 108.961 118.442 109.295 117.543V122.094H104.879C106.14 121.561 107.252 120.797 108.003 119.884ZM107.044 109.945H109.295V112.521C108.794 111.301 108.021 110.415 107.044 109.945ZM89.1316 109.185V106.876C89.1587 106.51 89.1949 106.148 89.2446 105.8C90.2164 99.1736 95.9117 94.1292 100.92 91.6161C103.654 90.2466 106.511 89.6454 109.295 89.5324V109.181H89.1316V109.185ZM101.078 109.945V122.09H99.9389C94.7726 121.412 90.5961 116.44 89.5249 111.97C89.3712 111.328 89.2582 110.645 89.1859 109.945H101.078ZM100.576 90.9472C97.5434 92.4704 94.8359 94.5361 92.7567 96.9181C91.0662 98.8527 89.8548 100.905 89.1316 103.043V89.4556H104.586C103.234 89.7991 101.896 90.2872 100.576 90.9472ZM97.1049 122.094H89.1316V113.344C90.3746 116.896 93.3397 120.508 97.1049 122.094ZM89.1316 176.38V122.849H99.9119C99.9435 122.854 99.9751 122.858 100.002 122.863C100.658 122.94 101.336 122.931 102.018 122.849H143.516V126.348C143.01 134.294 140.669 142.371 137.071 148.401C127.751 164.017 115.185 170.788 106.285 173.722C97.1366 176.741 89.9045 176.425 89.1316 176.38ZM110.064 122.094V89.5188C116.609 89.4646 122.643 92.0094 125.554 93.4694C134.241 97.8221 140.709 106.32 142.856 116.191C143.177 117.674 143.399 119.184 143.516 120.698V122.09H110.064V122.094ZM125.902 92.7958C123.918 91.8014 120.519 90.3189 116.487 89.4556H143.521V115.658C141.238 105.723 134.68 97.1983 125.902 92.7958ZM175.446 76.7951C175.061 75.0052 174.555 73.0796 173.891 71.0592C171.997 65.3278 169.203 59.9988 165.578 55.2076C161.054 49.2231 155.219 44.0838 148.235 39.9254C143.688 37.218 138.006 35.2156 132.085 34.1489H156.986C166.654 46.1766 173.217 60.7988 175.446 76.7951ZM158.301 34.1489H176.526V77.4098C175.504 69.5134 173.425 61.8294 170.306 54.4572C167.21 47.1394 163.192 40.3413 158.301 34.1489ZM125.82 33.385C124.912 33.3263 124.008 33.2901 123.108 33.2811C122.11 33.272 121.106 33.3037 120.107 33.385H89.0231V1.33822C116.121 1.44218 140.357 13.9129 156.367 33.385H125.82ZM78.5684 0.917893C70.1747 1.86709 62.0162 4.00501 54.2011 7.31364C46.9375 10.3872 40.18 14.3739 34.0238 19.2148V0.922417H78.5684V0.917893ZM74.2473 2.52698C73.1173 2.82078 71.9511 3.1598 70.7443 3.55756C65.0446 5.45143 59.7381 8.2448 54.974 11.8698C49.0212 16.3944 43.9045 22.2297 39.7687 29.2131C37.0748 33.7602 35.0815 39.4418 34.0238 45.363V20.5302C45.4458 11.3817 59.2047 5.03106 74.2473 2.52698ZM33.2644 51.6277C33.2057 52.5362 33.174 53.4402 33.1605 54.3397C33.1514 55.3386 33.1831 56.3421 33.2644 57.341V88.5471H1.08204C1.19956 61.409 13.7245 37.1457 33.2644 21.1449V51.6277ZM1.01425 101.759C2.09001 109.199 4.11045 116.449 7.05749 123.419C10.1718 130.786 14.2262 137.625 19.162 143.854H1.01425V101.759ZM1.62897 98.7577C2.03125 101.185 2.66405 103.965 3.64037 106.943C5.52521 112.675 8.30953 118.004 11.9165 122.795C16.4229 128.78 22.2357 133.919 29.1829 138.077C33.7074 140.785 39.3665 142.787 45.2605 143.854H20.4728C10.2893 131.22 3.52737 115.712 1.62897 98.7577ZM97.6247 177.08C106.43 176.203 114.991 174.02 123.167 170.562C130.503 167.462 137.315 163.425 143.521 158.521V177.08H97.6247ZM104.097 175.182C104.888 174.96 105.702 174.716 106.529 174.445C112.269 172.551 117.617 169.758 122.417 166.133C128.41 161.608 133.568 155.773 137.735 148.79C140.447 144.242 142.459 138.561 143.525 132.64V157.206C132.307 166.232 118.833 172.556 104.097 175.182ZM144.28 126.37C144.339 125.462 144.375 124.558 144.384 123.658C144.393 122.659 144.361 121.656 144.28 120.657V89.4511H176.277C176.119 116.454 163.684 140.604 144.28 156.582V126.37ZM176.526 33.385H157.696C155.707 30.9216 153.582 28.5576 151.322 26.2976C143.186 18.1616 133.712 11.7749 123.163 7.31364C115.497 4.06829 107.492 1.95297 99.2655 0.976655H176.526V33.385ZM1.01878 0.917893H33.2644V19.816C30.7558 21.8319 28.3467 23.997 26.0415 26.2976C17.9055 34.4336 11.5187 43.9076 7.05749 54.4572C4.11497 61.418 2.09454 68.6545 1.01878 76.0854V0.917893ZM1.01425 144.613H19.7722C21.7294 147.031 23.8222 149.355 26.0415 151.574C34.1775 159.71 43.6514 166.097 54.2011 170.558C62.2151 173.948 70.5951 176.108 79.2148 177.021H1.01425V144.613ZM144.28 177.08V157.911C146.725 155.936 149.076 153.825 151.322 151.578C159.458 143.442 165.845 133.968 170.306 123.419C173.425 116.051 175.5 108.372 176.526 100.484V177.08H144.28Z" fill="white"/>
</svg>
