<svg width="933" height="583" viewBox="0 0 933 583" fill="none" xmlns="http://www.w3.org/2000/svg">
<path d="M4.78294 581.47H334.859C345.283 582.284 355.744 582.643 366.204 582.535C375.609 582.438 385.076 582.074 394.548 581.47H928.922C931.114 581.47 932.885 579.699 932.885 577.507V4.37986C932.885 2.19362 931.114 0.411865 928.922 0.411865H4.78294C2.59158 0.411865 0.814941 2.19362 0.814941 4.37986V577.507C0.820061 579.699 2.59158 581.47 4.78294 581.47ZM8.74582 292.933C17.7621 334.855 33.3013 370.178 43.7103 390.786C89.693 481.856 178.801 549.911 282.594 573.544H8.74582V292.933ZM288.19 566.699C185.012 544.401 96.2517 477.304 50.7554 387.202C35.4978 356.979 8.89942 294.387 9.46774 226.501H349.85V573.544H335.299C319.448 572.321 303.689 570.042 288.19 566.699ZM349.85 142.558C347.091 164.61 336.385 187.077 321.793 198.986C311.527 207.357 292.747 215.063 277.792 216.107V141.217H349.85V142.558ZM261.413 147.612C263.696 148.969 264.761 150.935 264.761 153.771H256.641V146.009C258.433 146.306 260.087 146.818 261.413 147.612ZM269.856 161.712V166.996H256.641V161.712H269.856ZM248.705 146.05V166.996H227.948C230.201 158.917 235.28 151.933 242.551 147.975C244.179 147.084 246.36 146.424 248.705 146.05ZM222.926 195.197C227.82 205.324 237.062 213.312 249.862 218.56H222.926V195.197ZM268.043 215.662C255.95 213.307 234.738 206.599 228.532 188.137C227.063 183.769 226.505 179.289 226.699 174.922H269.861V215.902C269.251 215.836 268.627 215.769 268.043 215.662ZM269.856 144.816C268.857 143.434 267.593 142.22 266.087 141.217H269.856V144.816ZM222.926 157.719V141.217H238.429C231.558 145.057 226.29 150.858 222.926 157.719ZM302.286 218.56C311.722 215.052 320.513 210.245 326.77 205.135C336.329 197.337 344.29 185.802 349.85 172.746V218.56H302.286ZM349.85 133.286H222.926V9.89922C230.247 10.6519 237.4 11.8243 244.097 13.4167C290.802 24.5219 342.744 67.8474 349.85 121.464V133.286ZM214.995 9.2541V218.56H9.66743C10.8245 189.688 17.1017 160.048 31.4274 131.694C57.6879 79.7411 110.419 20.6256 179.646 10.5597C190.746 8.93666 202.947 8.5373 214.995 9.2541ZM460.053 573.544C521.918 562.47 581.3 541.637 628.793 513.497C701.748 470.264 762.722 416.806 810.021 354.613C847.873 304.832 877.093 249.392 896.866 189.821C917.873 126.517 923.623 71.7693 924.965 39.3392V573.544H460.053ZM917.08 8.34786C917.08 8.45538 917.065 8.54242 917.07 8.64994C917.131 9.42306 922.548 87.3392 889.37 187.312C858.732 279.616 787.953 409.961 624.779 506.662C561.747 544.007 477.338 568.286 394.318 573.539H357.781V143.05C358.616 135.974 358.703 128.914 357.92 122.13C357.884 121.812 357.822 121.495 357.781 121.177V8.34786H917.08ZM349.85 92.1008C332.816 51.9498 293.469 20.5744 255.386 8.34786H349.85V92.1008ZM153.882 8.34786C130.387 15.7155 107.895 28.6384 86.7644 46.9782C61.8761 68.5642 40.3004 96.6269 24.3925 128.099C17.4652 141.811 12.3605 155.783 8.75607 169.817V8.34786H153.882Z" fill="white"/>
</svg>
